<?xml version="1.0" standalone="no"?><!DOCTYPE svg PUBLIC "-//W3C//DTD SVG 1.1//EN" "http://www.w3.org/Graphics/SVG/1.1/DTD/svg11.dtd"><svg t="1747228740806" class="icon" viewBox="0 0 1024 1024" version="1.1" xmlns="http://www.w3.org/2000/svg" p-id="6560" xmlns:xlink="http://www.w3.org/1999/xlink" width="200" height="200"><path d="M361.130667 658.688a256 256 0 1 1 282.794666-44.672 42.496 42.496 0 0 0-10.368 14.933333c-0.853333 0.682667-1.621333 1.450667-2.389333 2.218667a42.666667 42.666667 0 0 0 0 60.330667l170.666667 170.666666a42.666667 42.666667 0 0 0 60.330666-60.330666l-142.762666-142.762667a341.333333 341.333333 0 1 0-169.344 99.242667 42.666667 42.666667 0 0 0-20.224-82.901334 254.762667 254.762667 0 0 1-168.704-16.725333z" fill="#7dc5eb" p-id="6561"></path></svg>